<svg  xmlns="http://www.w3.org/2000/svg" width="1255px" height="1169px" style="background-color: rgba(256,256,256,1.0);float:left" 	xmlns:xlink="http://www.w3.org/1999/xlink"><defs></defs><rect id="rect940368128" x="66" y="3" width="1103" height="1165" style="fill:rgb(256,256,256); fill-opacity:1.0; stroke:rgb(0,0,0); stroke-width:1; " class="" /><text id="text362295296" x="581" y="23" style="fill:rgb(0,0,0); " transform="rotate(0,594,18) " class="" ><tspan font-family = "Arial, Helvetica, sans-serif" font-size="20.0px">Test2PH5</tspan></text><rect id="rect265380864" x="284" y="53" width="667" height="425" style="fill:rgb(256,256,256); fill-opacity:1.0; stroke:rgb(0,0,0); stroke-width:1; " class="" /><text id="text1009613056" x="565" y="73" style="fill:rgb(0,0,0); " transform="rotate(0,581,68) " class="" ><tspan font-family = "Arial, Helvetica, sans-serif" font-size="20.0px">:PrinterPH5</tspan></text><rect id="rect264742144" x="507" y="103" width="219" height="125" style="fill:rgb(256,256,256); fill-opacity:1.0; stroke:rgb(0,0,0); stroke-width:1; " class="" /><text id="text1009912832" x="580" y="123" style="fill:rgb(0,0,0); " transform="rotate(0,593,118) " class="" ><tspan font-family = "Arial, Helvetica, sans-serif" font-size="20.0px">:TestPH5</tspan></text><rect id="rect713129984" x="507" y="278" width="219" height="125" style="fill:rgb(256,256,256); fill-opacity:1.0; stroke:rgb(0,0,0); stroke-width:1; " class="" /><text id="text472628480" x="580" y="298" style="fill:rgb(0,0,0); " transform="rotate(0,593,293) " class="" ><tspan font-family = "Arial, Helvetica, sans-serif" font-size="20.0px">:TestPH5</tspan></text><rect id="rect562931968" x="284" y="528" width="667" height="425" style="fill:rgb(256,256,256); fill-opacity:1.0; stroke:rgb(0,0,0); stroke-width:1; " class="" /><text id="text459450368" x="561" y="548" style="fill:rgb(0,0,0); " transform="rotate(0,578,543) " class="" ><tspan font-family = "Arial, Helvetica, sans-serif" font-size="20.0px">:Printer2PH5</tspan></text><rect id="rect849107968" x="507" y="578" width="219" height="125" style="fill:rgb(256,256,256); fill-opacity:1.0; stroke:rgb(0,0,0); stroke-width:1; " class="" /><text id="text932004096" x="580" y="598" style="fill:rgb(0,0,0); " transform="rotate(0,593,593) " class="" ><tspan font-family = "Arial, Helvetica, sans-serif" font-size="20.0px">:TestPH5</tspan></text><rect id="rect407039232" x="507" y="753" width="219" height="125" style="fill:rgb(256,256,256); fill-opacity:1.0; stroke:rgb(0,0,0); stroke-width:1; " class="" /><text id="text300286976" x="580" y="773" style="fill:rgb(0,0,0); " transform="rotate(0,593,768) " class="" ><tspan font-family = "Arial, Helvetica, sans-serif" font-size="20.0px">:TestPH5</tspan></text><rect id="rect790493184" x="529" y="1003" width="175" height="115" style="fill:rgb(256,256,256); fill-opacity:1.0; stroke:rgb(0,0,0); stroke-width:1; " class="" /><text id="text414582016" x="565" y="1023" style="fill:rgb(0,0,0); " transform="rotate(0,580,1018) " class="" ><tspan font-family = "Arial, Helvetica, sans-serif" font-size="20.0px">:ByteString</tspan></text><text id="text604729600" x="598" y="1068" style="fill:rgb(0,0,0); " transform="rotate(0,605,1063) " class="" ><tspan font-family = "Arial, Helvetica, sans-serif" font-size="15.0px">'test'</tspan></text><rect id="rect837688576" x="1168" y="52" width="50" height="3" style="fill:rgb(0,0,0); fill-opacity:1.0; " class="" /><path id="arc130176000" d="M 1230.7777777777776 43.0 L 1230.7777777777776 40.5 A 12.5 12.5 0 0 0 1218.2777777777776 53.0 A 12.5 12.5 0 0 0 1230.7777777777776 65.5 L 1230.7777777777776 63.0 A 10.0 10.0 0 0 1 1220.7777777777776 53.0 A 1240.7777777777776 63.0 0 0 1 1230.7777777777776 43.0 Z" style="fill:rgb(0,0,0); " class="" /><text id="text659163392" x="1174" y="40" style="fill:rgb(0,0,0); " transform="rotate(0,1194,35) " class="" ><tspan font-family = "Arial, Helvetica, sans-serif" font-size="10.0px">a1&#160;:&#160;ArticlePH5</tspan></text><rect id="rect1045116160" x="66" y="52" width="50" height="3" style="fill:rgb(0,0,0); fill-opacity:1.0; " class="" /><rect id="rect999619584" x="114" y="52" width="3" height="3" style="fill:rgb(0,0,0); fill-opacity:1.0; " class="" /><text id="text844996864" x="71" y="40" style="fill:rgb(0,0,0); " transform="rotate(0,90,35) " class="" ><tspan font-family = "Arial, Helvetica, sans-serif" font-size="10.0px">p&#160;:&#160;PrinterPH5</tspan></text><rect id="rect741166336" x="16" y="202" width="50" height="3" style="fill:rgb(0,0,0); fill-opacity:1.0; " class="" /><ellipse id="ellipse304784384" cx="8" cy="203" rx="8" ry="8" style="fill:rgb(256,256,256); fill-opacity:1.0; stroke:rgb(0,0,0); stroke-width:1; " class="" /><ellipse id="ellipse765868288" cx="65" cy="188" rx="0" ry="0" style="fill:rgb(0,0,0); fill-opacity:1.0; " class="" /><text id="text1006147584" x="11" y="193" style="fill:rgb(0,0,0); " transform="rotate(0,24,188) " class="" ><tspan font-family = "Arial, Helvetica, sans-serif" font-size="10.0px">default&#160;:&#160;*</tspan></text><rect id="rect941837312" x="66" y="102" width="50" height="3" style="fill:rgb(0,0,0); fill-opacity:1.0; " class="" /><rect id="rect360960256" x="114" y="102" width="3" height="3" style="fill:rgb(0,0,0); fill-opacity:1.0; " class="" /><text id="text18792448" x="71" y="90" style="fill:rgb(0,0,0); " transform="rotate(0,93,85) " class="" ><tspan font-family = "Arial, Helvetica, sans-serif" font-size="10.0px">p2&#160;:&#160;Printer2PH5</tspan></text><rect id="rect639562752" x="66" y="152" width="50" height="3" style="fill:rgb(0,0,0); fill-opacity:1.0; " class="" /><rect id="rect978741504" x="114" y="152" width="3" height="3" style="fill:rgb(0,0,0); fill-opacity:1.0; " class="" /><text id="text1058531328" x="71" y="140" style="fill:rgb(0,0,0); " transform="rotate(0,89,135) " class="" ><tspan font-family = "Arial, Helvetica, sans-serif" font-size="10.0px">v&#160;:&#160;ByteString</tspan></text><rect id="rect549297152" x="950" y="102" width="50" height="3" style="fill:rgb(0,0,0); fill-opacity:1.0; " class="" /><path id="arc8257792" d="M 1012.7222222222222 93.0 L 1012.7222222222222 90.5 A 12.5 12.5 0 0 0 1000.2222222222222 103.0 A 12.5 12.5 0 0 0 1012.7222222222222 115.5 L 1012.7222222222222 113.0 A 10.0 10.0 0 0 1 1002.7222222222222 103.0 A 1022.7222222222222 113.0 0 0 1 1012.7222222222222 93.0 Z" style="fill:rgb(0,0,0); " class="" /><text id="text277090304" x="956" y="90" style="fill:rgb(0,0,0); " transform="rotate(0,972,85) " class="" ><tspan font-family = "Arial, Helvetica, sans-serif" font-size="10.0px">t&#160;:&#160;Test2PH5</tspan></text><rect id="rect949961728" x="284" y="102" width="50" height="3" style="fill:rgb(0,0,0); fill-opacity:1.0; " class="" /><rect id="rect542808320" x="332" y="102" width="3" height="3" style="fill:rgb(0,0,0); fill-opacity:1.0; " class="" /><text id="text469972992" x="289" y="90" style="fill:rgb(0,0,0); " transform="rotate(0,309,85) " class="" ><tspan font-family = "Arial, Helvetica, sans-serif" font-size="10.0px">test2&#160;:&#160;TestPH5</tspan></text><rect id="rect174320640" x="234" y="202" width="50" height="3" style="fill:rgb(0,0,0); fill-opacity:1.0; " class="" /><ellipse id="ellipse642527488" cx="226" cy="203" rx="8" ry="8" style="fill:rgb(256,256,256); fill-opacity:1.0; stroke:rgb(0,0,0); stroke-width:1; " class="" /><ellipse id="ellipse339042304" cx="283" cy="188" rx="0" ry="0" style="fill:rgb(0,0,0); fill-opacity:1.0; " class="" /><path id="arc1013112064" d="M 226.8055555555555 193.0 L 226.8055555555555 190.5 A 12.5 12.5 0 0 0 214.3055555555555 203.0 A 12.5 12.5 0 0 0 226.8055555555555 215.5 L 226.8055555555555 213.0 A 10.0 10.0 0 0 1 216.8055555555555 203.0 A 236.8055555555555 213.0 0 0 1 226.8055555555555 193.0 Z" style="fill:rgb(0,0,0); " class="" /><rect id="rect1051431936" x="212" y="202" width="3" height="3" style="fill:rgb(0,0,0); fill-opacity:1.0; " class="" /><text id="text850577664" x="229" y="193" style="fill:rgb(0,0,0); " transform="rotate(0,242,188) " class="" ><tspan font-family = "Arial, Helvetica, sans-serif" font-size="10.0px">default&#160;:&#160;*</tspan></text><rect id="rect929559808" x="234" y="252" width="50" height="3" style="fill:rgb(0,0,0); fill-opacity:1.0; " class="" /><ellipse id="ellipse169229312" cx="226" cy="253" rx="8" ry="8" style="fill:rgb(256,256,256); fill-opacity:1.0; stroke:rgb(0,0,0); stroke-width:1; " class="" /><ellipse id="ellipse971923712" cx="283" cy="238" rx="0" ry="0" style="fill:rgb(0,0,0); fill-opacity:1.0; " class="" /><text id="text288534528" x="250" y="243" style="fill:rgb(0,0,0); " transform="rotate(0,258,238) " class="" ><tspan font-family = "Arial, Helvetica, sans-serif" font-size="10.0px">foo&#160;:&#160;*</tspan></text><rect id="rect759424000" x="284" y="152" width="50" height="3" style="fill:rgb(0,0,0); fill-opacity:1.0; " class="" /><rect id="rect73332992" x="332" y="152" width="3" height="3" style="fill:rgb(0,0,0); fill-opacity:1.0; " class="" /><text id="text926799872" x="289" y="140" style="fill:rgb(0,0,0); " transform="rotate(0,308,135) " class="" ><tspan font-family = "Arial, Helvetica, sans-serif" font-size="10.0px">test&#160;:&#160;TestPH5</tspan></text><rect id="rect886344704" x="950" y="152" width="50" height="3" style="fill:rgb(0,0,0); fill-opacity:1.0; " class="" /><path id="arc778342656" d="M 1012.7222222222222 143.0 L 1012.7222222222222 140.5 A 12.5 12.5 0 0 0 1000.2222222222222 153.0 A 12.5 12.5 0 0 0 1012.7222222222222 165.5 L 1012.7222222222222 163.0 A 10.0 10.0 0 0 1 1002.7222222222222 153.0 A 1022.7222222222222 163.0 0 0 1 1012.7222222222222 143.0 Z" style="fill:rgb(0,0,0); " class="" /><text id="text209453056" x="956" y="140" style="fill:rgb(0,0,0); " transform="rotate(0,981,135) " class="" ><tspan font-family = "Arial, Helvetica, sans-serif" font-size="10.0px">article&#160;:&#160;ArticlePH5</tspan></text><rect id="rect963130368" x="457" y="202" width="50" height="3" style="fill:rgb(0,0,0); fill-opacity:1.0; " class="" /><ellipse id="ellipse677325056" cx="450" cy="203" rx="8" ry="8" style="fill:rgb(256,256,256); fill-opacity:1.0; stroke:rgb(0,0,0); stroke-width:1; " class="" /><ellipse id="ellipse1066215424" cx="507" cy="188" rx="0" ry="0" style="fill:rgb(0,0,0); fill-opacity:1.0; " class="" /><path id="arc208557312" d="M 450.4166666666666 193.0 L 450.4166666666666 190.5 A 12.5 12.5 0 0 0 437.9166666666666 203.0 A 12.5 12.5 0 0 0 450.4166666666666 215.5 L 450.4166666666666 213.0 A 10.0 10.0 0 0 1 440.4166666666666 203.0 A 460.4166666666666 213.0 0 0 1 450.4166666666666 193.0 Z" style="fill:rgb(0,0,0); " class="" /><rect id="rect530504704" x="436" y="202" width="3" height="3" style="fill:rgb(0,0,0); fill-opacity:1.0; " class="" /><text id="text917422336" x="453" y="193" style="fill:rgb(0,0,0); " transform="rotate(0,466,188) " class="" ><tspan font-family = "Arial, Helvetica, sans-serif" font-size="10.0px">default&#160;:&#160;*</tspan></text><rect id="rect499936512" x="507" y="152" width="50" height="3" style="fill:rgb(0,0,0); fill-opacity:1.0; " class="" /><path id="arc404259840" d="M 569.6666666666665 143.0 L 569.6666666666665 140.5 A 12.5 12.5 0 0 0 557.1666666666665 153.0 A 12.5 12.5 0 0 0 569.6666666666665 165.5 L 569.6666666666665 163.0 A 10.0 10.0 0 0 1 559.6666666666665 153.0 A 579.6666666666665 163.0 0 0 1 569.6666666666665 143.0 Z" style="fill:rgb(0,0,0); " class="" /><text id="text833837312" x="513" y="140" style="fill:rgb(0,0,0); " transform="rotate(0,534,135) " class="" ><tspan font-family = "Arial, Helvetica, sans-serif" font-size="10.0px">foo&#160;:&#160;ArticlePH5</tspan></text><rect id="rect126846208" x="457" y="377" width="50" height="3" style="fill:rgb(0,0,0); fill-opacity:1.0; " class="" /><ellipse id="ellipse527772672" cx="450" cy="378" rx="8" ry="8" style="fill:rgb(256,256,256); fill-opacity:1.0; stroke:rgb(0,0,0); stroke-width:1; " class="" /><ellipse id="ellipse97317120" cx="507" cy="363" rx="0" ry="0" style="fill:rgb(0,0,0); fill-opacity:1.0; " class="" /><path id="arc301113344" d="M 450.4166666666666 368.0 L 450.4166666666666 365.5 A 12.5 12.5 0 0 0 437.9166666666666 378.0 A 12.5 12.5 0 0 0 450.4166666666666 390.5 L 450.4166666666666 388.0 A 10.0 10.0 0 0 1 440.4166666666666 378.0 A 460.4166666666666 388.0 0 0 1 450.4166666666666 368.0 Z" style="fill:rgb(0,0,0); " class="" /><rect id="rect269982976" x="436" y="377" width="3" height="3" style="fill:rgb(0,0,0); fill-opacity:1.0; " class="" /><text id="text1045746688" x="453" y="368" style="fill:rgb(0,0,0); " transform="rotate(0,466,363) " class="" ><tspan font-family = "Arial, Helvetica, sans-serif" font-size="10.0px">default&#160;:&#160;*</tspan></text><rect id="rect1049610240" x="507" y="327" width="50" height="3" style="fill:rgb(0,0,0); fill-opacity:1.0; " class="" /><path id="arc298104064" d="M 569.6666666666665 318.0 L 569.6666666666665 315.5 A 12.5 12.5 0 0 0 557.1666666666665 328.0 A 12.5 12.5 0 0 0 569.6666666666665 340.5 L 569.6666666666665 338.0 A 10.0 10.0 0 0 1 559.6666666666665 328.0 A 579.6666666666665 338.0 0 0 1 569.6666666666665 318.0 Z" style="fill:rgb(0,0,0); " class="" /><text id="text156728320" x="513" y="315" style="fill:rgb(0,0,0); " transform="rotate(0,534,310) " class="" ><tspan font-family = "Arial, Helvetica, sans-serif" font-size="10.0px">foo&#160;:&#160;ArticlePH5</tspan></text><rect id="rect639627264" x="950" y="577" width="50" height="3" style="fill:rgb(0,0,0); fill-opacity:1.0; " class="" /><path id="arc989252864" d="M 1012.7222222222222 568.0 L 1012.7222222222222 565.5 A 12.5 12.5 0 0 0 1000.2222222222222 578.0 A 12.5 12.5 0 0 0 1012.7222222222222 590.5 L 1012.7222222222222 588.0 A 10.0 10.0 0 0 1 1002.7222222222222 578.0 A 1022.7222222222222 588.0 0 0 1 1012.7222222222222 568.0 Z" style="fill:rgb(0,0,0); " class="" /><text id="text555557888" x="956" y="565" style="fill:rgb(0,0,0); " transform="rotate(0,972,560) " class="" ><tspan font-family = "Arial, Helvetica, sans-serif" font-size="10.0px">t&#160;:&#160;Test2PH5</tspan></text><rect id="rect1061361664" x="284" y="577" width="50" height="3" style="fill:rgb(0,0,0); fill-opacity:1.0; " class="" /><rect id="rect235791616" x="332" y="577" width="3" height="3" style="fill:rgb(0,0,0); fill-opacity:1.0; " class="" /><text id="text843435008" x="289" y="565" style="fill:rgb(0,0,0); " transform="rotate(0,309,560) " class="" ><tspan font-family = "Arial, Helvetica, sans-serif" font-size="10.0px">test2&#160;:&#160;TestPH5</tspan></text><rect id="rect211369984" x="234" y="677" width="50" height="3" style="fill:rgb(0,0,0); fill-opacity:1.0; " class="" /><ellipse id="ellipse560594176" cx="226" cy="678" rx="8" ry="8" style="fill:rgb(256,256,256); fill-opacity:1.0; stroke:rgb(0,0,0); stroke-width:1; " class="" /><ellipse id="ellipse896627712" cx="283" cy="663" rx="0" ry="0" style="fill:rgb(0,0,0); fill-opacity:1.0; " class="" /><path id="arc732424448" d="M 226.8055555555555 668.0 L 226.8055555555555 665.5 A 12.5 12.5 0 0 0 214.3055555555555 678.0 A 12.5 12.5 0 0 0 226.8055555555555 690.5 L 226.8055555555555 688.0 A 10.0 10.0 0 0 1 216.8055555555555 678.0 A 236.8055555555555 688.0 0 0 1 226.8055555555555 668.0 Z" style="fill:rgb(0,0,0); " class="" /><rect id="rect482502656" x="212" y="677" width="3" height="3" style="fill:rgb(0,0,0); fill-opacity:1.0; " class="" /><text id="text527111424" x="229" y="668" style="fill:rgb(0,0,0); " transform="rotate(0,242,663) " class="" ><tspan font-family = "Arial, Helvetica, sans-serif" font-size="10.0px">default&#160;:&#160;*</tspan></text><rect id="rect438272256" x="234" y="727" width="50" height="3" style="fill:rgb(0,0,0); fill-opacity:1.0; " class="" /><ellipse id="ellipse173969408" cx="226" cy="728" rx="8" ry="8" style="fill:rgb(256,256,256); fill-opacity:1.0; stroke:rgb(0,0,0); stroke-width:1; " class="" /><ellipse id="ellipse108080384" cx="283" cy="713" rx="0" ry="0" style="fill:rgb(0,0,0); fill-opacity:1.0; " class="" /><text id="text810664960" x="250" y="718" style="fill:rgb(0,0,0); " transform="rotate(0,258,713) " class="" ><tspan font-family = "Arial, Helvetica, sans-serif" font-size="10.0px">foo&#160;:&#160;*</tspan></text><rect id="rect1007532032" x="284" y="627" width="50" height="3" style="fill:rgb(0,0,0); fill-opacity:1.0; " class="" /><rect id="rect685524224" x="332" y="627" width="3" height="3" style="fill:rgb(0,0,0); fill-opacity:1.0; " class="" /><text id="text356936704" x="289" y="615" style="fill:rgb(0,0,0); " transform="rotate(0,308,610) " class="" ><tspan font-family = "Arial, Helvetica, sans-serif" font-size="10.0px">test&#160;:&#160;TestPH5</tspan></text><rect id="rect611311616" x="950" y="627" width="50" height="3" style="fill:rgb(0,0,0); fill-opacity:1.0; " class="" /><path id="arc755784960" d="M 1012.7222222222222 618.0 L 1012.7222222222222 615.5 A 12.5 12.5 0 0 0 1000.2222222222222 628.0 A 12.5 12.5 0 0 0 1012.7222222222222 640.5 L 1012.7222222222222 638.0 A 10.0 10.0 0 0 1 1002.7222222222222 628.0 A 1022.7222222222222 638.0 0 0 1 1012.7222222222222 618.0 Z" style="fill:rgb(0,0,0); " class="" /><text id="text113120256" x="956" y="615" style="fill:rgb(0,0,0); " transform="rotate(0,981,610) " class="" ><tspan font-family = "Arial, Helvetica, sans-serif" font-size="10.0px">article&#160;:&#160;ArticlePH5</tspan></text><rect id="rect35981312" x="457" y="677" width="50" height="3" style="fill:rgb(0,0,0); fill-opacity:1.0; " class="" /><ellipse id="ellipse224490752" cx="450" cy="678" rx="8" ry="8" style="fill:rgb(256,256,256); fill-opacity:1.0; stroke:rgb(0,0,0); stroke-width:1; " class="" /><ellipse id="ellipse962116608" cx="507" cy="663" rx="0" ry="0" style="fill:rgb(0,0,0); fill-opacity:1.0; " class="" /><path id="arc818929920" d="M 450.4166666666666 668.0 L 450.4166666666666 665.5 A 12.5 12.5 0 0 0 437.9166666666666 678.0 A 12.5 12.5 0 0 0 450.4166666666666 690.5 L 450.4166666666666 688.0 A 10.0 10.0 0 0 1 440.4166666666666 678.0 A 460.4166666666666 688.0 0 0 1 450.4166666666666 668.0 Z" style="fill:rgb(0,0,0); " class="" /><rect id="rect533540864" x="436" y="677" width="3" height="3" style="fill:rgb(0,0,0); fill-opacity:1.0; " class="" /><text id="text406555904" x="453" y="668" style="fill:rgb(0,0,0); " transform="rotate(0,466,663) " class="" ><tspan font-family = "Arial, Helvetica, sans-serif" font-size="10.0px">default&#160;:&#160;*</tspan></text><rect id="rect563116288" x="507" y="627" width="50" height="3" style="fill:rgb(0,0,0); fill-opacity:1.0; " class="" /><path id="arc336091136" d="M 569.6666666666665 618.0 L 569.6666666666665 615.5 A 12.5 12.5 0 0 0 557.1666666666665 628.0 A 12.5 12.5 0 0 0 569.6666666666665 640.5 L 569.6666666666665 638.0 A 10.0 10.0 0 0 1 559.6666666666665 628.0 A 579.6666666666665 638.0 0 0 1 569.6666666666665 618.0 Z" style="fill:rgb(0,0,0); " class="" /><text id="text804955392" x="513" y="615" style="fill:rgb(0,0,0); " transform="rotate(0,534,610) " class="" ><tspan font-family = "Arial, Helvetica, sans-serif" font-size="10.0px">foo&#160;:&#160;ArticlePH5</tspan></text><rect id="rect400953600" x="457" y="852" width="50" height="3" style="fill:rgb(0,0,0); fill-opacity:1.0; " class="" /><ellipse id="ellipse24543232" cx="450" cy="853" rx="8" ry="8" style="fill:rgb(256,256,256); fill-opacity:1.0; stroke:rgb(0,0,0); stroke-width:1; " class="" /><ellipse id="ellipse184466688" cx="507" cy="838" rx="0" ry="0" style="fill:rgb(0,0,0); fill-opacity:1.0; " class="" /><path id="arc440054784" d="M 450.4166666666666 843.0 L 450.4166666666666 840.5 A 12.5 12.5 0 0 0 437.9166666666666 853.0 A 12.5 12.5 0 0 0 450.4166666666666 865.5 L 450.4166666666666 863.0 A 10.0 10.0 0 0 1 440.4166666666666 853.0 A 460.4166666666666 863.0 0 0 1 450.4166666666666 843.0 Z" style="fill:rgb(0,0,0); " class="" /><rect id="rect70297856" x="436" y="852" width="3" height="3" style="fill:rgb(0,0,0); fill-opacity:1.0; " class="" /><text id="text381134848" x="453" y="843" style="fill:rgb(0,0,0); " transform="rotate(0,466,838) " class="" ><tspan font-family = "Arial, Helvetica, sans-serif" font-size="10.0px">default&#160;:&#160;*</tspan></text><rect id="rect262233088" x="507" y="802" width="50" height="3" style="fill:rgb(0,0,0); fill-opacity:1.0; " class="" /><path id="arc718291200" d="M 569.6666666666665 793.0 L 569.6666666666665 790.5 A 12.5 12.5 0 0 0 557.1666666666665 803.0 A 12.5 12.5 0 0 0 569.6666666666665 815.5 L 569.6666666666665 813.0 A 10.0 10.0 0 0 1 559.6666666666665 803.0 A 579.6666666666665 813.0 0 0 1 569.6666666666665 793.0 Z" style="fill:rgb(0,0,0); " class="" /><text id="text241946624" x="513" y="790" style="fill:rgb(0,0,0); " transform="rotate(0,534,785) " class="" ><tspan font-family = "Arial, Helvetica, sans-serif" font-size="10.0px">foo&#160;:&#160;ArticlePH5</tspan></text><rect id="rect21693440" x="479" y="1052" width="50" height="3" style="fill:rgb(0,0,0); fill-opacity:1.0; " class="" /><ellipse id="ellipse606394624" cx="472" cy="1053" rx="8" ry="8" style="fill:rgb(256,256,256); fill-opacity:1.0; stroke:rgb(0,0,0); stroke-width:1; " class="" /><ellipse id="ellipse791869440" cx="529" cy="1038" rx="0" ry="0" style="fill:rgb(0,0,0); fill-opacity:1.0; " class="" /><path id="arc996738304" d="M 472.6388888888888 1043.0 L 472.6388888888888 1040.5 A 12.5 12.5 0 0 0 460.1388888888888 1053.0 A 12.5 12.5 0 0 0 472.6388888888888 1065.5 L 472.6388888888888 1063.0 A 10.0 10.0 0 0 1 462.6388888888888 1053.0 A 482.6388888888888 1063.0 0 0 1 472.6388888888888 1043.0 Z" style="fill:rgb(0,0,0); " class="" /><rect id="rect735554560" x="458" y="1052" width="3" height="3" style="fill:rgb(0,0,0); fill-opacity:1.0; " class="" /><text id="text479097088" x="475" y="1043" style="fill:rgb(0,0,0); " transform="rotate(0,488,1038) " class="" ><tspan font-family = "Arial, Helvetica, sans-serif" font-size="10.0px">default&#160;:&#160;*</tspan></text><path id="bezier999619584_1051431936" name="bezier[]" d="M115.5,53Q222.95555555555552,68 166.29722222222216,128Q109.6388888888888,188 213.5555555555555,203" style="fill:none; stroke:rgb(0,256,0); stroke-opacity:1.0; stroke-width:3.0; " class="" /><path id="bezier542808320_530504704" name="bezier[]" d="M333.5555555555555,103Q412.5944444444443,113 398.7324074074073,153Q384.87037037037027,193 437.1666666666666,203" style="fill:none; stroke:rgb(0,256,0); stroke-opacity:1.0; stroke-width:3.0; " class="" /><path id="bezier73332992_269982976" name="bezier[]" d="M333.5555555555555,153Q412.5944444444443,175.5 398.7324074074073,265.5Q384.87037037037027,355.5 437.1666666666666,378" style="fill:none; stroke:rgb(0,256,0); stroke-opacity:1.0; stroke-width:3.0; " class="" /><path id="bezier360960256_482502656" name="bezier[]" d="M115.5,103Q222.95555555555552,160.5 166.29722222222216,390.5Q109.6388888888888,620.5 213.5555555555555,678" style="fill:none; stroke:rgb(0,256,0); stroke-opacity:1.0; stroke-width:3.0; " class="" /><path id="bezier235791616_533540864" name="bezier[]" d="M333.5555555555555,578Q412.5944444444443,588 398.7324074074073,628Q384.87037037037027,668 437.1666666666666,678" style="fill:none; stroke:rgb(0,256,0); stroke-opacity:1.0; stroke-width:3.0; " class="" /><path id="bezier685524224_70297856" name="bezier[]" d="M333.5555555555555,628Q412.5944444444443,650.5 398.7324074074073,740.5Q384.87037037037027,830.5 437.1666666666666,853" style="fill:none; stroke:rgb(0,256,0); stroke-opacity:1.0; stroke-width:3.0; " class="" /><path id="bezier978741504_735554560" name="bezier[]" d="M115.5,153Q316.37222222222215,243.00000000000003 352.311111111111,603Q388.2499999999999,963 459.3888888888888,1053" style="fill:none; stroke:rgb(0,256,0); stroke-opacity:1.0; stroke-width:3.0; " class="" /></svg>